Coordinates
version=1
nRows=7
nColumns=46
inDegrees=yes

Units are S.I. units (second, meters, Newtons, ...)
Angles are in degrees.

endheader
time	pelvis_tilt	pelvis_list	pelvis_rotation	pelvis_tx	pelvis_ty	pelvis_tz	bb_angle	bb_tx	bb_ty	bb_tz	hip_flexion_r	hip_adduction_r	hip_rotation_r	knee_angle_r	knee_angle_r_beta	ankle_angle_r	subtalar_angle_r	mtp_angle_r	crank_angle_r	hip_flexion_l	hip_adduction_l	hip_rotation_l	knee_angle_l	knee_angle_l_beta	ankle_angle_l	subtalar_angle_l	mtp_angle_l	crank_angle_l	lumbar_extension	lumbar_bending	lumbar_rotation	arm_flex_r	arm_add_r	arm_rot_r	elbow_flex_r	pro_sup_r	wrist_flex_r	wrist_dev_r	arm_flex_l	arm_add_l	arm_rot_l	elbow_flex_l	pro_sup_l	wrist_flex_l	wrist_dev_l
      5.00000000	     -7.82552352	     -0.46165567	      2.33908040	      0.11992563	      1.12061695	     -0.28837787	      0.00000000	      0.50000000	      0.00000000	      0.25000000	     61.38620104	    -12.56273192	     -2.43861111	    101.44781795	      1.77059844	      1.14982560	     -5.44202012	      0.00000000	      0.00000000	     56.17111910	     -3.57496277	      2.59411093	     57.19043544	      0.99816140	     10.22629644	     -1.91488496	      0.00000000	      0.00000000	    -67.18227043	      2.20837136	     -2.94011836	     85.17849833	    -18.91578047	     37.30829290	     64.28846198	     44.19604884	      0.00000000	      0.00000000	     81.76463816	    -24.22387570	     28.43696925	     63.48279761	     49.87879815	      0.00000000	      0.00000000
      5.00500000	     -7.94828126	     -0.91528632	      2.29195582	      0.12101652	      1.12110497	     -0.28904614	      0.00000000	      0.50000000	      0.00000000	      0.25000000	     62.49424713	    -12.30968428	     -2.56221883	    102.98556707	      1.79743723	      1.82961837	     -5.68215911	      0.00000000	      0.00000000	     54.79435449	     -4.03258683	      2.67992954	     55.11324543	      0.96190759	      9.23838215	     -1.17889005	      0.00000000	      0.00000000	    -66.98783645	      2.68017357	     -2.48166120	     85.06502102	    -18.66882332	     37.45476939	     64.23932370	     44.20551423	      0.00000000	      0.00000000	     81.46275410	    -24.47126514	     28.51154846	     63.35425699	     49.85925964	      0.00000000	      0.00000000
      5.01000000	     -7.63694872	     -0.61445624	      2.10467502	      0.12232560	      1.12294308	     -0.28949449	      0.00000000	      0.50000000	      0.00000000	      0.25000000	     63.32314796	    -12.45921337	     -1.96275690	    104.51902874	      1.82420118	      2.61952553	     -5.60927248	      0.00000000	      0.00000000	     52.57812679	     -4.16765956	      1.87093966	     52.67574097	      0.91936512	      8.13339014	     -0.18530862	      0.00000000	      0.00000000	    -67.29249785	      2.56702736	     -3.06370061	     85.46357934	    -18.14341080	     38.35539902	     63.44940351	     44.17481175	      0.00000000	      0.00000000	     81.61366007	    -25.22508673	     29.10111344	     62.93232595	     49.86071061	      0.00000000	      0.00000000
      5.01500000	     -7.88176229	     -1.20572279	      2.00452674	      0.12361171	      1.12361684	     -0.29047410	      0.00000000	      0.50000000	      0.00000000	      0.25000000	     64.53195369	    -12.09654228	     -2.20808017	    105.87586328	      1.84788241	      3.30990480	     -5.77175363	      0.00000000	      0.00000000	     51.27541201	     -4.77181520	      1.90219147	     50.62245588	      0.88352853	      7.13629657	      0.51229156	      0.00000000	      0.00000000	    -67.01102642	      3.10889219	     -2.49587461	     85.47094377	    -17.87300513	     38.50511085	     63.35588454	     44.17620549	      0.00000000	      0.00000000	     81.31235087	    -25.53591334	     29.22100290	     62.80387099	     49.85346474	      0.00000000	      0.00000000
      5.02000000	     -7.74460392	     -1.31519488	      1.70843138	      0.12490087	      1.12538077	     -0.29097313	      0.00000000	      0.50000000	      0.00000000	      0.25000000	     65.51593113	    -11.82404350	     -1.90983583	    107.16540768	      1.87038921	      3.86067654	     -5.70971506	      0.00000000	      0.00000000	     49.30625234	     -5.25884653	      1.21780046	     48.33245812	      0.84356053	      6.06564083	      1.40320324	      0.00000000	      0.00000000	    -67.10109895	      3.29927009	     -3.15097236	     86.23617464	    -16.33483659	     39.95464879	     61.29405380	     44.06425138	      0.00000000	      0.00000000	     81.30281750	    -27.58169543	     30.69474768	     62.96784699	     50.14733607	      0.00000000	      0.00000000
      5.02500000	     -8.00983780	     -1.86732930	      1.53718697	      0.12597460	      1.12629933	     -0.29185473	      0.00000000	      0.50000000	      0.00000000	      0.25000000	     66.85776405	    -11.38886151	     -2.07471189	    108.34980246	      1.89106080	      4.32723746	     -5.89728357	      0.00000000	      0.00000000	     47.98162307	     -5.89307428	      1.06242558	     46.29826637	      0.80805719	      5.09795731	      2.13191208	      0.00000000	      0.00000000	    -66.84854123	      3.75901604	     -2.55253379	     86.28137610	    -16.16606236	     39.99136187	     61.31262808	     44.07307363	      0.00000000	      0.00000000	     81.01776497	    -27.74942075	     30.69675579	     62.84669691	     50.12867937	      0.00000000	      0.00000000
      5.03000000	     -8.28164106	     -2.37248879	      1.19453384	      0.12719678	      1.12747295	     -0.29293172	      0.00000000	      0.50000000	      0.00000000	      0.25000000	     68.23300712	    -10.88454874	     -2.13654220	    109.40496353	      1.90947683	      4.71573221	     -6.03588352	      0.00000000	      0.00000000	     46.58990140	     -6.60166324	      0.65196230	     44.26907900	      0.77264119	      4.12360671	      2.82995155	      0.00000000	      0.00000000	    -66.59940201	      4.10865976	     -1.90821178	     86.28457764	    -15.99214742	     40.07377742	     61.29389950	     44.07923115	      0.00000000	      0.00000000	     80.69544172	    -27.89005601	     30.70084049	     62.69050218	     50.10177741	      0.00000000	      0.00000000
